<?xml version="1.0" encoding="utf-8"?>
<!-- Generator: Adobe Illustrator 23.0.1, SVG Export Plug-In . SVG Version: 6.00 Build 0)  -->
<svg version="1.1" id="Layer_1" xmlns="http://www.w3.org/2000/svg" xmlns:xlink="http://www.w3.org/1999/xlink" x="0px" y="0px"
	 viewBox="0 0 35 35" style="enable-background:new 0 0 35 35;" xml:space="preserve">
<style type="text/css">
	.st0{fill:#FFFFFF;}
	.st1{opacity:0.2;fill:#FFFFFF;}
</style>
<line class="st0" x1="16.7" y1="20.9" x2="16.5" y2="20.6"/>
<line class="st0" x1="18.5" y1="20.6" x2="18.3" y2="20.9"/>
<polygon class="st0" points="25.9,18.6 17.5,27 9.1,18.6 12,18.6 16.5,23.2 16.5,8 18.5,8 18.5,23.2 23,18.6 "/>
<path class="st1" d="M17.5,35C7.8,35,0,27.2,0,17.5C0,7.9,7.8,0,17.5,0C27.2,0,35,7.9,35,17.5C35,27.2,27.2,35,17.5,35z M17.5,1
	C8.4,1,1,8.4,1,17.5S8.4,34,17.5,34S34,26.6,34,17.5S26.6,1,17.5,1z"/>
</svg>
