<svg xmlns="http://www.w3.org/2000/svg" viewBox="0 0 35 35" enable-background="new 0 0 35 35"><style type="text/css">.st0{fill:#FFFFFF;} .st1{opacity:0.2;fill:#FFFFFF;}</style><path d="M16.7 20.9l-.2-.3M18.5 20.6l-.2.3" class="st0"/><path d="M25.9 18.6L17.5 27l-8.4-8.4H12l4.5 4.6V8h2v15.2l4.5-4.6z" class="st0"/><path d="M17.5 35C7.8 35 0 27.2 0 17.5 0 7.9 7.8 0 17.5 0S35 7.9 35 17.5C35 27.2 27.2 35 17.5 35zm0-34C8.4 1 1 8.4 1 17.5S8.4 34 17.5 34 34 26.6 34 17.5 26.6 1 17.5 1z" class="st1"/></svg>