<svg xmlns="http://www.w3.org/2000/svg" viewBox="0 0 889 365" enable-background="new 0 0 889 365"><style type="text/css">.st0{fill-rule:evenodd;clip-rule:evenodd;fill:#FFFFFF;} .st1{fill:#FFFFFF;}</style><path d="M80.3 150.1c-3.1 0-6.8 2.7-6.8 11.7 1.2 2.8 3.3 5.5 5.5 7.5 4.5-5 6-9.5 6-13-.1-3.7-1.5-6.2-4.7-6.2zm-9.2 4.5c1.2-6.1 5.9-9.6 10.6-9.6 5.3 0 10.3 3.5 10.3 10.1 0 4.4-2.4 8.9-5.1 12.5-1 1.1-2.2 2.4-4.4 4.8 6.8 5.7 17.4 10.1 23.4 10.3-1.7-3.4-2.3-6.4-2.3-9.1 0-13.5 12.8-20.3 23.4-20.3 10.4 0 16.5 4.6 19.3 9.2 3 5.1 3.8 11.3 3.8 20.2 0 9.4 1.5 15.2 2.8 17.5 1.3 3 4.1 5 7.2 5 3.7 0 7.3-2.8 7.3-6.7 0-5.1-1.9-7.2-4.4-9-1.2-.8-1.2-1.2-.6-2.2 1.1-1.2 3-2.4 5.5-2.4 4.5 0 9.3 4.1 9.3 10.8 0 10.4-11.1 14.6-19.3 14.6-2.7 0-7.5 2.4-15.1 6.4-8.1 4.2-18.6 8.5-27.5 8.5-16.5 0-25.4-14-25.4-21.6 0-8.6 4.3-12.5 11.2-15.3v-.3c-5.6-1.6-14.3-5-21.9-11.3-1.5 1.6-4.4 4.5-6.8 7.2 2.7.8 5.1 3.8 5.1 7.2 0 4.4-2.4 7.3-5.1 11.2-3.9 5.6-5.5 9-5.5 14.2 0 3.4 1.1 6.8 3.7 9 1.5.8 1.2 2.3-.2 2.2-7.5-.8-16.5-5.1-16.5-17.5 0-3.1 1-6.4 1.5-8.1.2-1.1 0-1.7-1.3-1.7-1 0-3.1 1-3.8 1.7-.6.5-1.3.5-1.3-.8 0-10.3 10.6-17.5 17.2-17.8 3.9-3.5 6.6-6 9.8-9.5-6.8-6.3-12.1-15.3-12.1-26.7 0-14.8 10.1-22.6 16.9-22.6 4.1 0 5.6 2.4 6 5.1 1.2.8 1.7 1.7 2.1 2.4.6 1.6-1.1 2.1-1.5 2.9-.7-1.3-2.1-2.2-4.9-2.2-3.9 0-12.1 4.2-12.1 16 0 2.3.1 4.5.7 6.1-.4-.4 0-.4 0-.4z" class="st0"/><path d="M211.8 233.9h19.8c15.9 0 22.3-8.1 22.3-23.3v-7c0-13.2-6.1-16.6-10.2-18.2 4.1-1.6 8.5-5.5 8.5-18.2v-3.5c0-13.4-6-20.7-21.7-20.7h-18.7v90.9zm13.6-53.9v-25.4h4.4c6.7 0 9.4 2.9 9.4 10.4v3.5c0 9-2.4 11.4-10.2 11.4l-3.6.1zm0 11.3h3.5c9 0 11.2 3.8 11.2 12.6v6.1c0 8.9-1.9 12.4-10.1 12.4h-4.6v-31.1zm65.5-11.9h-17.8V156h21.1v-13H259v90.9h35.2v-13h-21.1v-28.6h17.8v-12.9zm22.8 54.5h14.1V156h13.6v-13h-43.3v13h15.7v77.9h-.1zM352.6 233.9h14V156h15.8v-13h-42.1v13h12.4l-.1 77.9zm73.2 0h14v-40.7h3.3c8.1 0 9.5 2.7 9.5 13.6 0 6.7-.1 21.6 1 27.1h13.6c-1-5.5-.8-20.3-.8-27.9 0-12.4-3.1-16.2-8.4-18.7 3.4-1.5 9.2-5.1 9.2-19.1v-3.4c0-16.4-8.1-21.9-22.1-21.9h-19.4l.1 91zm14.1-79.4h3.9c8 0 9.4 4.2 9.4 11.3v3.1c0 10-2.8 12.6-10.1 12.6h-3.3l.1-27zm71.2 79.4c2.8-19.6 6.7-44.2 8.7-63.4h.2c2.1 18.7 5.6 42.9 8.1 63.4h14.3l13.4-90.9h-14.2c-2.1 20.5-4.8 48.6-5.8 66.3h-.2c-1.7-20-5.6-45.7-8.4-66.3h-13.6c-2.7 19.8-6.4 47.7-8.5 67h-.1c-.7-17.2-3.5-47.5-5.6-67h-15l12.5 90.9h14.2zm90 0h19.8c15.9 0 22.3-8.1 22.3-23.3v-7c0-13.2-6.1-16.6-10.2-18.2 4.1-1.6 8.5-5.5 8.5-18.2v-3.5c0-13.4-6-20.7-21.7-20.7h-18.7v90.9zm13.5-53.9v-25.4h4.4c6.7 0 9.4 2.9 9.4 10.4v3.5c0 9-2.4 11.4-10.2 11.4l-3.6.1zm0 11.3h3.5c9 0 11.2 3.8 11.2 12.6v6.1c0 8.9-1.9 12.4-10.1 12.4h-4.6v-31.1zm59.9 42.6h14V156h14.8v-13H660v13h14.6l-.1 77.9zm62.3 0v-30.6c0-1.9.1-2.9.2-3.4l17.4-56.9h-15c-3.4 14.6-7.4 30.9-9.2 41.6h-.1c-1.5-10-5.6-27-9.2-41.6h-15.4l17.1 55.7c.2 1.2.5 1.9.5 3V234h13.7v-.1zm20 0h14v-37.5h5.5c17.2 0 22.6-10 22.6-24.9v-5.2c0-16.2-7.3-23.3-21.7-23.3h-20.3l-.1 90.9zm13.9-79.4h5.1c7.8 0 9 5.5 9 12.1v4.4c0 9-1.5 14-10.3 14h-3.8v-30.5zm65.6 24.9h-18.9V156h21.1v-13h-35.2v90.9h35.4l1.8-13h-23.2v-28.6h18.9l.1-12.9zm-418.1 0h-17.8V156h21.1v-13h-35.2v90.9h35v-13h-21v-28.6h17.8l.1-12.9zm173.7 0h-17.8V156h21.1v-13H560v90.9h35v-13h-21v-28.6h17.8l.1-12.9z" class="st1"/></svg>