<svg xmlns="http://www.w3.org/2000/svg" viewBox="0 0 252.2 225" enable-background="new 0 0 252.2 225"><style type="text/css">.st0{fill:#FFFFFF;}</style><path d="M166 131.4c-2.2-1.2-4.8-1.8-6.3-3.9.1-1.3.7-1.9 1.8-2.1.9-.1 1.7-.3 2.6-.4 1.9-.3 3.4-1.2 4.8-2.5 2.8-2.8 6-5 9.8-6.2 2.2-.7 4.4-.9 6.7-.5.7.1 1.4.1 2 .1.4-.3.7-.5 1-.7 1.5-1.1 4.4-.8 5.6.6.5.6.8 1.4.5 2.2-.2.6-.3 1.2-.5 1.9.5.2.9.3 1.4.4 1.1.4 1.5 1.3 1.3 2.4-.4 1.9-1.3 3.6-2.4 5.2-.8 1.2-1.8 2.3-2.6 3.4s-1.5 2.3-2.2 3.5c-.8 1.3-.9 2.7-.6 4.1.5 2.6.6 5.2.5 7.8-.1 4.1-1 7.9-2.7 11.6-.9 2-2.1 4-3.2 6.2 1.1 1 2.2 2.3 3.5 3.4 3.4 3.1 7.1 5.9 11.1 8.1 2.9 1.6 5.9 2.8 9.2 3.2.8.1 1.7 0 2.5 0 1.3.1 2.6.1 3.8.3 1.1.1 2.1.7 2.8 1.5.5.1 1 .2 1.5.3.5.9.3 1.6-.1 2.3-.9 1.3-2.1 2.1-3.7 2.1-2.7.1-5.4.1-8 0-1.1 0-2.3-.4-3.4-.6-5-1.2-10-2.5-15-3.6-4.4-.9-8.9-1.7-13.4-2.4-2.5-.4-4.9-.6-7.4-.9-.4 0-.9 0-1.3.1-3.9 1.5-8 2.2-12.1 2.7-3.8.5-7.5.6-11.3.5-12.4-.5-23.7-4.1-33.6-11.7-2.6-2-5.1-4.3-7.3-6.8-2.5-2.7-5.1-5.5-8.1-7.7-1.6-1.2-3.4-2-5.5-1.8-1 .1-1.9.3-2.8.7-3.6 1.4-7.2 2.8-10.8 4.3-3 1.3-6 2.8-9 4.2-.6.3-1.2.7-1.6 1.2-2.8 3.4-5.1 7.2-6.6 11.4-.4 1.1-.6 2.1-.4 3.4 1.7.6 3 1.6 2.4 3.9-2.1.7-4.1 1.7-6.4.6-.8-.4-1.6-.6-2.4-.9-.8-1.7-.6-3.3-.1-4.8.7-2.1 1.4-4.2 2.2-6.3 1.9-5 3.3-10.1 4.6-15.3.5-1.9 1.5-3.2 3-4.3 2-1.3 3.9-2.8 5.6-4.5 1.4-1.4 2.5-3.1 3.1-5 1.3-4 2.5-8.1 3.9-12.1.7-2.1 1.6-4.1 2.5-6.1 1.2-2.8 3.2-4.9 6-6.3.2-.1.5-.3.7-.4 0 0 .1-.1.1-.2-.2-.8-.8-1.4-1.3-2-1.5-1.5-3.3-2.6-5.2-3.6-3.5-1.9-7.2-3.3-10.9-4.7-5.4-2.1-10.6-4.5-15.4-7.8-4.4-3-8.4-6.5-11.4-10.9-2.4-3.5-4.1-7.4-5-11.6-.3-1.4-.7-2.9-.9-4.3-.9-6.3.3-12.1 4.3-17.2 4.5-5.8 10.4-9.6 17.8-10.7 6.1-.9 12-.2 17.6 2.8.2.1.3.2.5.4-1.6 1.9-3.3 3.8-4.9 5.7-3.5-1.5-7.2-1.5-10.8-1.3-3.1.2-6 1.3-8.6 3.2-3.1 2.3-5.6 5-6.7 8.7-1.7 5.7-.7 11 2.8 15.8 2.4 3.3 5.5 5.6 9.5 6.5 3.8.9 7.6.8 11.3-.6.8-.3 1.6-.9 2.5-1.4 1.6 2.1 3.2 4.3 4.9 6.6-4.1 2.3-8.3 3.7-13 3.9-4.6.2-8.9-.8-13.2-2.6.5.4.9.9 1.4 1.3 3 2.6 6.4 4.5 9.9 6.2 7 3.3 14.4 5.6 21.8 7.8 3.7 1 7.4 2 11 3.1 5.9 1.7 11.3 4.4 16.6 7.4 3.6 2 6.1 5 7.9 8.6 1.2 2.3 2.2 4.7 3.5 6.9 2.4 4.5 5.5 8.5 9.5 11.7 3.4 2.7 7.3 4.2 11.7 4.4 2.6.1 5.3.2 7.9-.1 4.6-.4 9-1.4 13-3.9 3.5-2.2 5.7-5.3 6.4-9.4 0-1.3-.1-2.9-.2-4.5zM74.3 45.1c1.4-.3 7.3-.2 8.5.1 0 6.1 0 12.2 0 18.5 1.7-1.1 3.5-1.8 5.4-2 2.5-.3 5-.2 7.4.5 3.2 1 5.1 3.3 6.1 6.4.5 1.6.8 3.3.8 5 0 3.4 0 6.7 0 10.1 0 3.2.3 6.5-.1 9.7-1 .3-6.6.3-8.4.1 0-.5 0-1 0-1.5 0-5.8 0-11.6 0-17.4 0-1.6 0-3.7-1.5-4.8-1.6-1.2-3.8-1.3-5.7-.7-2 .7-3.3 2.4-3.6 4.5-.5 2.9-.3 5.9-.3 8.8 0 3.2 0 6.3 0 9.5 0 .5 0 1 0 1.5-1 .3-6.1.4-8.3.2 0 0-.1-.1-.1-.1s-.1-.1-.1-.1c0-15.9-.1-31.7-.1-47.6-.1-.2-.1-.4 0-.7zM221.3 79.6c-9.4 0-18.8 0-28.3 0 .1 1.5.8 2.6 1.6 3.6 2.9 3.7 9.1 4.1 13.2 2.8 2-.6 2.9-1.1 5.1-3.2 2.2 1 4.4 2 6.7 3.1-.2 1.2-1.9 2.3-2.8 3-1.3 1-2.8 1.8-4.2 2.4-1.9.9-3.9 1.7-6 1.9-6.6.9-12.7-.4-17.5-5.4-1.6-1.6-2.6-3.6-3.1-5.8-.8-3.4-.8-6.8.3-10.1 1.4-4 4.2-6.8 7.8-8.8 2.7-1.5 5.6-2.1 8.6-2.2 2.5-.1 4.9.1 7.2 1 4.3 1.5 7.3 4.6 9.5 8.5.8 1.5 1.4 3.1 1.8 4.7.2 1.3.7 3.2.1 4.5zm-8.5-5.6c-2-4.6-7.3-6.7-12.1-5.6-3 .7-5.5 2.1-7.2 4.7-.2.2-.2.5-.4.9 6.7 0 13.2 0 19.7 0zM139.7 93.6c-2.7 0-5.6 0-8.4 0 0-.7 0-1.3 0-2.1-.3.1-.4.2-.5.2-3.1 2.5-6.6 3.2-10.5 2.8-6.3-.6-12-5.5-13.3-12.2-.9-4.5-.4-9.2 2.2-13 2.8-4.1 7.2-6.5 12.1-6.7 4.7-.2 9.5.3 12.9 3.9 1.8-1.1 3.8-2.2 5.5-3.2v30.3zm-24.6-14.2c.2 2.2 1 4.3 2.6 5.8 2.1 2.1 5.4 2.9 8.3 1.8 4.3-1.6 6.1-6.4 5.2-10.7-1.3-6.4-7.7-7.6-11.6-5.6-3.2 1.6-4.7 5.2-4.5 8.7zM168.6 70.3c-1.4 0-2.7 0-4 0 .2-.5.3-.8.4-1 1-1.9 2.1-3.7 3.1-5.5.4-.6.5-1.3.5-2 0-2.8 0-5.5 0-8.3 0-.5 0-1 .1-1.6 2.8 0 5.5 0 8.4 0 .2 1.1.1 2.3.1 3.5 0 1.2 0 2.3 0 3.5 0 1.2 0 2.4 0 3.7 1.9 0 3.6 0 5.4 0 .3 1.1.4 5.5.2 7.7-1.8 0-3.5 0-5.4 0-.1 1.4-.1 2.7-.1 3.9 0 2.6 0 5.2 0 7.7 0 1.2 0 2.5 0 3.7 0 2.6 0 5.1 0 7.7-1.1.3-6.3.3-8.5.1-.2-2.5-.1-5.1-.1-7.7 0-3.8 0-7.7 0-11.5-.1-1.1-.1-2.4-.1-3.9zM147.2 70.3c-1.5 0-2.7 0-4.2 0 1.5-2.6 2.8-5.1 4.2-7.6 0-3.5 0-7.1 0-10.6 1.1-.3 6.4-.3 8.3-.1.3 1.1.1 2.3.1 3.5 0 1.2 0 2.3 0 3.5 0 1.2 0 2.4 0 3.7 1.9 0 3.8 0 5.5 0 .3 1.2.3 6 .1 7.7-1.9 0-3.7 0-5.6 0 0 1.6 0 3.1 0 4.6 0 1.6 0 3.1 0 4.7 0 1.5 0 3 0 4.6 0 1.6 0 3.1 0 4.7 0 1.5 0 3 0 4.6-2.8 0-5.5 0-8.4 0-.1-1.5 0-3 0-4.5 0-1.6 0-3.1 0-4.7 0-1.5 0-3 0-4.6 0-1.6 0-3.1 0-4.7 0-1.5 0-3 0-4.8zM117.6 54.5c-1.3 0-2.5 0-3.8 0-.1-.3-.2-.6-.2-.8-.1 0-.3.1-.4.1-3.5 2.7-10.2 1-11.2-5.1-.5-2.8.4-5.9 2.8-7.6 2.9-2.1 6.8-2 9.8-.1.2.1.3.2.5.4.8-.4 1.5-.8 2.5-1.3 0 4.8 0 9.5 0 14.4zm-3.9-7.3c0-1.5-.5-2.9-1.9-3.7-1.5-.8-3.3-.6-4.5.6-1.9 1.8-1.5 5.2.6 6.7 2.7 2 5.8-.6 5.8-3.6zM93.4 50.7c2.4 0 4.6 0 7 0 .1 1.3.1 2.5 0 3.6-1.1.3-9.8.4-11 .1-.2-1-.3-21.4 0-22.9 1.3-.2 2.6-.1 4.1-.1 0 4.3 0 8.6 0 12.9-.1 2-.1 4.1-.1 6.4z" class="st0"/></svg>