<svg xmlns="http://www.w3.org/2000/svg" width="960" height="560"><title>Preview HTML</title><desc>Created with Sketch.</desc><g fill="none"><path fill="#000" d="M0 0h960v560H0z"/><g><path id="Path" fill="#E6372F" d="M324.5 308.92L207 126h586L660.58 293.64h20.45l-61.35 74.33H574.7l-52.37-61.63h-7.43l-90.8 121.62-22.1.04-77.5-121.75z"/><path id="Path" fill="#fff" d="M745 149H189l105.7 165.7h24.72L396.17 435l22.48-.03 90-120.27h9.1l50.3 59.05h21.28l47.97-60.4-22.82.03z"/><path fill="#35BBD8" d="M397 435l-77.03-120.5h-24.8L199 164.07l-32-.07 114.53 181.9h29.9l56.75 89.1z"/></g></g></svg>