<?xml version="1.0" encoding="utf-8"?>
<!-- Generator: Adobe Illustrator 23.0.2, SVG Export Plug-In . SVG Version: 6.00 Build 0)  -->
<svg version="1.1" id="Layer_1" xmlns="http://www.w3.org/2000/svg" xmlns:xlink="http://www.w3.org/1999/xlink" x="0px" y="0px"
	 viewBox="0 0 485 182" style="enable-background:new 0 0 485 182;" xml:space="preserve">
<style type="text/css">
	.st0{fill-rule:evenodd;clip-rule:evenodd;fill:#FFFFFF;}
	.st1{fill-rule:evenodd;clip-rule:evenodd;fill:#FDB300;}
	.st2{fill-rule:evenodd;clip-rule:evenodd;fill:#EA6C00;}
	.st3{fill-rule:evenodd;clip-rule:evenodd;fill:#FDAD00;}
	.st4{fill-rule:evenodd;clip-rule:evenodd;fill:#FDD231;}
	.st5{fill-rule:evenodd;clip-rule:evenodd;fill:#FEEEB7;}
</style>
<g transform="translate(47.000000, 48.000000)">
	<path class="st0" d="M128.2,56.9l-0.1-1h-1h-6H120l0,1.1c0.5,12.2,8.7,20.2,23.3,20.2c13.9,0,23.4-7.2,23.4-18.2
		c0-5.9-2.1-10.1-6-13c-3-2.2-6.6-3.4-12.6-4.7c-0.4-0.1-0.8-0.2-1.3-0.3c-0.3-0.1-1.4-0.3-1.3-0.3c-10.8-2.3-14.3-4.2-14.3-10.1
		c0-6.1,5-10,13.3-10c8.1,0,13.2,5,13.5,12.8l0,1h1h6h1.1l0-1.1c-0.3-12.2-8.4-20.3-21.6-20.3c-12.9,0-21.5,7.8-21.5,17.8
		c0,5.9,2.1,10,6,12.8c3,2.1,6.4,3.2,12.6,4.4c0.3,0.1,0.6,0.1,0.9,0.2c0.2,0,0.5,0.1,0.9,0.2c5.8,1.1,8.3,1.8,10.6,3.2
		c2.9,1.7,4.3,4.1,4.3,7.8c0,6.4-5.4,10.1-14.9,10.1C134.4,69.6,128.8,65,128.2,56.9z M183.8,12v-1.1h-1.1h-6h-1.1V12v63V76h1.1h6
		h1.1V75V63.8l8.5-8.3l15.2,20.1l0.3,0.4h0.5h7.4h2.1l-1.3-1.7L198,50L215,33l1.8-1.8h-2.5h-8h-0.4l-0.3,0.3l-21.8,22V12z
		 M259.1,56.4h1l0.1-1c0-0.2,0-0.5,0-0.8c0-0.3,0-0.5,0-0.8c0-0.3,0-0.5,0-0.7c0-13.2-8.7-22.9-21.6-22.9c-12.9,0-22,10.3-22,23.4
		c0,13.4,8.8,23.5,22.1,23.5c10.1,0,17.9-6,20.7-15.1l0.4-1.4h-1.4h-6.2h-0.7l-0.2,0.7c-1.8,5-6.6,8.3-12.5,8.3
		c-7.7,0-13.1-5.3-14-13.2H259.1z M225,49.4c1.4-7.1,6.6-11.8,13.6-11.8c7.3,0,12.3,4.5,13.4,11.8H225z M286.7,38.3h1v-1v-5v-1h-1
		h-8.8V20.1v-1h-1h-6h-1.1v1v11.1h-7.1h-1.1v1v5v1h1.1h7.1v25.2c0,8.3,4.3,12.7,12.1,12.7c1.4,0,2.6-0.1,3.5-0.2
		c0.6-0.1,1-0.2,1.3-0.2l0.8-0.2v-0.8v-5.4v-1.3l-1.3,0.3c-0.1,0-0.2,0-0.3,0.1c-0.2,0-0.5,0.1-0.8,0.1c-0.8,0.1-1.5,0.2-2.2,0.2
		c-0.1,0-0.1,0-0.2,0c-3.4,0-4.8-1.6-4.8-5.7V38.3H286.7z M311.8,77.1c11.2,0,19-7.1,21-17.1l0.2-1.3h-1.3h-6h-0.8l-0.2,0.8
		c-1.7,6.4-6.3,10.1-12.9,10.1c-8.3,0-14-6.5-14-15.9c0-9.5,5.7-16,14-16c6.6,0,11.2,3.7,12.9,10.1l0.2,0.8h0.8h6h1.3l-0.2-1.3
		c-2-10-9.9-17.1-21-17.1c-13,0-22.1,10.4-22.1,23.5C289.6,66.7,298.8,77.1,311.8,77.1z M347.9,12v-1.1h-1.1h-6h-1V12v63V76h1h6h1.1
		V75V49.7c0-7.7,4.7-12.2,11.8-12.2c6.8,0,10.2,3.9,10.2,11.4V75V76h1h6h1V75V47.7c0-10.5-6.5-17.5-17.3-17.5c-5.5,0-10,2-12.8,4.9
		V12z"/>
	<path class="st1" d="M20.9,2.8l27-2.8l27,2.8l20.9,27.8L47.9,86L0,30.7L20.9,2.8z"/>
	<g transform="translate(0.000000, 30.666295)">
		<polygon class="st2" points="19.4,0 47.9,55.3 0,0 		"/>
		<polygon class="st2" points="76.4,0 47.9,55.3 95.8,0 		"/>
		<polygon class="st3" points="19.4,0 76.4,0 47.9,55.3 		"/>
	</g>
	<polygon class="st4" points="47.9,0 20.9,2.8 19.4,30.7 	"/>
	<polygon class="st4" points="47.9,0 74.9,2.8 76.4,30.7 	"/>
	<polygon class="st3" points="95.8,30.7 74.9,2.8 76.4,30.7 	"/>
	<polygon class="st3" points="0,30.7 20.9,2.8 19.4,30.7 	"/>
	<polygon class="st5" points="47.9,0 19.4,30.7 76.4,30.7 	"/>
</g>
</svg>
