<svg xmlns="http://www.w3.org/2000/svg" viewBox="0 0 198.4 49.6" enable-background="new 0 0 198.4 49.6"><style type="text/css">.st0{fill:#FFFFFF;}</style><path d="M17.5 14.3h6.9L29 29.8h.1l4.4-15.5h6.9l-9.7 30.5h-3.1L17.5 14.3zm27.7 0h17.6v5.2H52.1v7h10v5.2H52v7.5h11.2v5.2h-18V14.3zm24.5 0h8.9c9.4 0 13 7.4 13 14.8 0 6.9-3.4 15.3-12.7 15.3h-9.3V14.3m8.6 25.1c5 0 6.5-3.8 6.5-9.9 0-5.7-1.4-10.1-6.1-10.1h-2v20h1.6zm18.4-25.1h17.6v5.2h-10.8v7h10v5.2h-10v7.5h11.2v5.2h-18V14.3zm28.7 5.2h-6.9v-5.2H139v5.2h-6.9v25h-6.9l.1-25zm23.7 0h-7v-5.2h20.7v5.2h-6.9v25H149v-25zM17.5 14.3h6.9L29 29.8h.1l4.4-15.5h6.9l-9.7 30.5h-3.1L17.5 14.3zm27.7 0h17.6v5.2H52.1v7h10v5.2H52v7.5h11.2v5.2h-18V14.3zm24.5 0h8.9c9.4 0 13 7.4 13 14.8 0 6.9-3.4 15.3-12.7 15.3h-9.3V14.3m8.6 25.1c5 0 6.5-3.8 6.5-9.9 0-5.7-1.4-10.1-6.1-10.1h-2v20h1.6zm18.4-25.1h17.6v5.2h-10.8v7h10v5.2h-10v7.5h11.2v5.2h-18V14.3zm28.7 5.2h-6.9v-5.2H139v5.2h-6.9v25h-6.9l.1-25zm23.7 0h-7v-5.2h20.7v5.2h-6.9v25H149v-25zm26.2-11.4c1.4-.9 1.1-1.7 2.1-2.8-.2.6.5 2.1-.6 4.3 1.2-.2 2.2-1.6 3.4-1.6-1.2 1-.9 2.8-2.6 3.5 1.1.8 2.6.3 3.4 1.1-1.6.2-2.3 1.3-4.1 1.2.4 1.2 1.9 1.4 2.3 2.6-1.1-.7-2.9.1-4.2-1.4-.4 1.2.5 2.4.4 3.4-.7-.8-2.3-1.4-2.7-3.4-1.2.7-1 2.2-2.5 2.9.7-1.3.2-2.8.9-4.4-1.1-.1-2.6 1.1-3.6 1.2.9-.7 1.3-2.3 2.8-3.1-1.2-.9-2.3-.7-3.4-1.1 1.5-.4 2.2-1.2 4.1-1.2-.4-1.4-1.9-1.7-2.1-2.6 1.4.7 2.9.3 4 1.5.6-.8-.3-2.4 0-3.4.4 1.1 2.1 1.8 2.4 3.3z" class="st0"/></svg>