<svg xmlns="http://www.w3.org/2000/svg" viewBox="0 0 432.42 212.92"><defs><style>.cls-1{fill:#e6372f;}.cls-2{fill:#fff;}.cls-3{fill:#35bbd8;}</style></defs><title>Asset 1</title><g id="Layer_2" data-name="Layer 2"><g id="Logo_Blanc" data-name="Logo Blanc"><polygon class="cls-1" points="108.35 126.18 27.07 0 432.42 0 340.82 115.64 354.97 115.64 312.53 166.91 281.42 166.91 245.19 124.4 240.05 124.4 177.24 208.29 161.95 208.32 108.35 124.34 108.35 126.18"/><polygon class="cls-2" points="399.21 15.46 383.32 15.46 15.18 15.46 88.19 129.86 104.67 129.86 105.26 129.86 158.27 212.92 173.8 212.9 235.97 129.86 242.24 129.86 276.99 170.63 291.69 170.64 324.82 128.94 309.06 128.95 399.21 15.46"/><polygon class="cls-3" points="158.27 212.92 105.26 129.86 88.19 129.86 22.02 26.17 0 26.12 78.81 151.51 99.39 151.51 138.44 212.92 158.27 212.92"/></g></g></svg>